<svg xmlns="http://www.w3.org/2000/svg" version="1" viewBox="0 0 600 202">
  <path fill="goldenrod" d="M361.3 30.2c-5.5 1.8-8 5.7-12.9 19.4-5.5 15.5-10.5 35.6-13 51.9-2.6 17.3-2.7 54.7-.1 62.2 2.1 5.9 4.7 8.3 9 8.3 5.3 0 11.7-4.9 15-11.5 7-13.9 5.9-40-2-48.7-1.5-1.7-1.4-1.8 2.8-1.8 4.8 0 8.9-2.2 8.9-4.6 0-1.3-1.1-1.5-7.4-.9-4.1.4-9.7.4-12.5 0-4.7-.6-5.1-.9-5.1-3.3 0-8.4 8.5-34.2 17.6-53.2 6.7-14.1 7.2-15.8 5.2-17.8-1.4-1.4-1.2-1.4-5.5 0zm-14.5 85.3c1.6 1.3 4.2 5.2 5.8 8.7 2.6 5.7 2.8 7.3 2.8 16.8-.1 8.4-.6 11.7-2.4 16.4-4 10.4-9.4 13.5-12.7 7.3-2.2-4.1-2.5-26.2-.4-41.5 1.5-11.2 2-11.8 6.9-7.7zM551.9 40.9c-1.9 1.6-4.9 5.6-6.6 8.8-5.2 9.9-11.3 32-11.3 41.2 0 2.2-.3 4.6-.6 5.5-.5 1.4-.8 1.4-2.7.1-2.9-2.1-5.4-1.9-11.3.9-5.8 2.7-10.2 7.6-14 15.6-5.4 11.5-12.8 19-18.7 19-1.6 0-3-.8-3.7-1.9-.5-1.1-1-8.2-1-16 0-8.5-.5-15-1.2-16.6-2.7-5.9-9.9-1.6-20.3 12-3.2 4.1-6 7.5-6.2 7.5-.9 0 .8-7.3 3.8-16.9 3.6-11.4 3.5-14.5-.3-14.9-5.2-.6-7.1 2.8-10.1 17.8-2.3 11.4-3.3 14.3-6.3 18.6-4.8 7-15 16.6-17.1 16.2-2.4-.4-4.3-4.5-4.3-9.4 0-5.9 2.6-19.9 5-26.8 1.2-3.6 1.7-6.3 1.1-6.9-2.2-2.2-4.8.2-9.1 8.3-8.8 16.5-19 29.5-25.1 32-2.8 1.2-3.3 1.2-4.6-.6-1.8-2.5-.9-11.7 2.5-24.4 1.4-5.2 2.7-11 3-12.8.4-3 .3-3.2-2.7-3.2-7.3 0-10.6 8.9-10.6 28.2 0 10.3.2 12 2.1 14.5 2.9 3.9 8.1 4.3 13.8.9 4.2-2.5 16.6-15 16.6-16.7 0-.5.5-.9 1-.9.6 0 1 3 1 6.9 0 10.7 2.5 15.1 8.4 15.1 4 0 10.8-4.4 16.4-10.4l4-4.3-.6 7.9-.5 8 2.9-.4c2.6-.3 3.5-1.5 8.4-10.8 8.2-15.7 17.3-28 20.6-28 .9 0 1.3 3.9 1.6 13.7.4 15 1.1 17.4 6 19.4 3.8 1.6 10.1-.9 16.1-6.2 2.5-2.1 4.8-3.9 5.1-3.9.3 0 .6 1.1.6 2.4 0 2.9 4.5 8.6 6.8 8.6 3 0 10-4.1 17-10l7.1-5.9 1.7 6c2.2 7.7 6.7 12.9 11.3 12.9 7.4 0 15.7-6.3 23.7-18.1 3.9-5.6 4.5-7.2 3.5-8.2-1-1-1.7-.6-3.5 1.7-10.3 13.9-16 18.9-21.1 18.4-3.8-.4-5.4-3.6-6.1-12.6-.6-6.5-.4-7 4.6-17.6 11-23.1 16.3-40.4 16.4-53.1.1-13.1-4.6-17.1-12.5-10.6zm7.8 12.5c-.9 11.6-6.3 28.9-14.3 46.1-3.6 7.8-4.1 5.3-1.9-9.3 4-26.5 11.4-47.3 15.8-44.5.6.3.7 3.4.4 7.7zM533 109.3v6.3l-6.2 6.1c-7.2 7-13.2 11.3-15.9 11.3-1.5 0-1.9-.8-1.9-3.8 0-10.3 13.1-26 21.8-26.2 2 0 2.2.4 2.2 6.3zM125.8 43.7c-5.5 5.8-15.4 21.5-21.9 34.9-3.2 6.6-5.9 12.6-5.9 13.2 0 1.2-1.5 1.7-7.5 2.7-2.2.3-8.2 1.7-13.3 3.2-5.1 1.4-9.4 2.4-9.6 2.2-.2-.2.5-4.5 1.7-9.4 2.8-12.3 3-33.5.4-38.3C67.6 48.4 62.6 45 59 45c-5.6 0-14.5 3.9-12.8 5.6.4.4 2.8.7 5.4.8 3.9.1 5 .6 6.7 2.8 3.2 4.3 3.3 16.1.4 34.6-1.4 8.4-2.7 15.5-2.9 15.6-.1.1-3.8 2.7-8.1 5.6-13.3 9-20.9 19.8-20.9 29.2 0 6.2 2.1 9.4 7.3 10.8 5.6 1.5 11.5-1.4 16.5-8.2 4.1-5.5 10.5-19.7 13-28.6l1.6-5.8 7.2-2.7c7.8-2.9 17.9-5.7 20.9-5.7 1.4 0 1.7.5 1.2 1.7-3.8 10.1-5.1 29.5-2.2 34.9 3.2 6.1 8.1 5.3 5.9-.9-2.4-6.8-.8-23.3 3.4-33.7l1.7-4.2 9.1.6c5 .3 10.8.8 12.8 1.2 3 .5 3.9.3 4.4-1.1 1.4-3.6-2-4.9-13.7-5.3-12.7-.5-12.1 1-5.8-13.5 4.8-11.1 11.9-23.5 17.6-30.8 2.3-3 4.3-6.1 4.3-6.7 0-2.3-2.6-1.2-6.2 2.5zm-71.7 71c-1.4 4.8-6.7 15.9-10.2 21.2-4.7 7.2-10.9 9-10.9 3.1 0-6.2 6.6-16.2 15.2-23 5.9-4.7 6.9-4.9 5.9-1.3zM181.1 86.9c-2.4 2.4-2.1 1.3-6.6 24.1-1.8 9.6-3.5 20.6-3.7 24.5-.3 6-.1 7 1.5 7.3 2.8.6 4.5-1.5 9.4-11.2 7.4-14.8 17.6-28.3 20.5-27.4 1 .4 1.3 3.6 1.3 12.9 0 13.6 1 17.2 5.5 19.7 3.8 2.1 9.8.1 15.8-5.3 2.7-2.5 5.2-4.5 5.5-4.5.2 0 .7 1.3 1 2.9.9 4.3 5.6 9.1 9.7 10 7.9 1.6 18.3-1.9 26.4-9l4.6-4.1 1.1 3.2c1.6 4.6 5.1 5.6 10.4 3 5.2-2.5 15.8-12.1 21.1-19 2.1-2.7 4.2-5 4.6-5 .4 0 .8 6 .8 13.4v13.3l-8.6 6.4c-10.8 7.9-18.6 16.4-22.6 24.6-2.7 5.5-3 7-2.6 12.8.5 8.6 3.4 11.9 10.1 11.8 11.1-.2 20.4-10.4 26.7-29.3 4.1-12.3 5.4-23 5.5-44.8 0-19.9-.2-21.1-4.2-21.2-.6 0-5.2 5.1-10.1 11.3-10.5 13.1-19.2 21.7-22.1 21.7-3.2 0-2.7-4.6 1.9-18.3 2.4-6.7 3.8-12.7 3.5-13.8-.9-2.8-5.3-3.6-7.5-1.3-1.6 1.6-5.4 13.1-7.5 22.7-.8 3.8-6.9 10.3-13 13.8-3.8 2.2-6.3 2.9-10.2 2.9-7.2 0-9.3-2.1-9.3-9.4 0-5.3.1-5.4 4.4-8C252.3 113 260 102.3 260 96c0-6.7-4.2-9.2-10.7-6.5-7.4 3.1-12.7 10.5-16.9 23.5-2.4 7.3-3.5 9.2-8.1 13.8-4.7 4.8-5.7 5.3-9 5-4.8-.4-5.2-1.9-4.6-17.3.7-14.3-.7-19.5-5.2-19.5-3.2 0-10.8 6.8-17.6 15.9-4.8 6.3-4.9 6.3-4.9 3.2 0-1.7 1.4-7.3 3.1-12.5 3.7-11.4 3.6-16-.3-16.4-1.7-.2-3.4.4-4.7 1.7zm74.3 8.6c1.5 3.9-4.5 13.6-11.6 18.7l-3.1 2.2.7-3.4c1-5.1 6.7-17 8.9-18.5 2.1-1.5 4.3-1.1 5.1 1zm52.1 55.6c-3.2 15.6-8.1 26.5-14.7 32.5-4.6 4.1-9.1 4.6-10.9 1.1-3.6-6.6.4-18.9 9.3-28.3 7.2-7.7 17.1-15.9 17.6-14.6.2.6-.4 4.8-1.3 9.3zM140.3 94.5c-6.8 4.1-13.1 15.5-14.7 26.8-1 6.3 1.5 14.8 5 17.6 7.7 6.1 21.2-.8 27.1-13.6 5-10.9 3.9-27.6-2-31.8-3.4-2.3-10.5-1.9-15.4 1zm14.1 7.8c2.8 3.8 2.6 14.4-.4 21.4-4.2 9.9-13.1 15.1-17.5 10.3-3.2-3.6-2.8-15.7.8-23.5 1.5-3.3 3.6-6.8 4.5-7.8 3.9-4.4 9.5-4.6 12.6-.4z"/>
</svg>
